<mxfile host="app.diagrams.net" agent="Mozilla/5.0 (Macintosh; Intel Mac OS X 10_15_7) AppleWebKit/537.36 (KHTML, like Gecko) Chrome/127.0.0.0 Safari/537.36" version="24.7.7">
  <diagram name="第 1 页" id="qMkWusgjriI_kuugpoxR">
    <mxGraphModel dx="1306" dy="714" grid="0" gridSize="10" guides="1" tooltips="1" connect="1" arrows="1" fold="1" page="1" pageScale="1" pageWidth="900" pageHeight="1600" math="0" shadow="0">
      <root>
        <mxCell id="0" />
        <mxCell id="1" parent="0" />
        <mxCell id="8KqGE17TKITH780qZiyp-4" style="edgeStyle=orthogonalEdgeStyle;rounded=0;orthogonalLoop=1;jettySize=auto;html=1;exitX=0.5;exitY=1;exitDx=0;exitDy=0;entryX=0.5;entryY=0;entryDx=0;entryDy=0;strokeWidth=3;flowAnimation=1;endArrow=classicThin;endFill=1;shadow=1;" edge="1" parent="1" source="8KqGE17TKITH780qZiyp-2" target="8KqGE17TKITH780qZiyp-3">
          <mxGeometry relative="1" as="geometry" />
        </mxCell>
        <mxCell id="8KqGE17TKITH780qZiyp-2" value="Start" style="rounded=1;whiteSpace=wrap;html=1;fontSize=20;fontStyle=0;fillColor=#ffe6cc;strokeColor=#d79b00;" vertex="1" parent="1">
          <mxGeometry x="150" y="120" width="80" height="40" as="geometry" />
        </mxCell>
        <mxCell id="8KqGE17TKITH780qZiyp-6" value="false" style="edgeStyle=orthogonalEdgeStyle;rounded=0;orthogonalLoop=1;jettySize=auto;html=1;exitX=1;exitY=0.5;exitDx=0;exitDy=0;entryX=0.5;entryY=0;entryDx=0;entryDy=0;strokeWidth=3;flowAnimation=1;shadow=1;fontSize=14;fontColor=#ff0000;fontStyle=1" edge="1" parent="1" source="8KqGE17TKITH780qZiyp-3" target="8KqGE17TKITH780qZiyp-5">
          <mxGeometry x="-0.3846" relative="1" as="geometry">
            <mxPoint as="offset" />
          </mxGeometry>
        </mxCell>
        <mxCell id="8KqGE17TKITH780qZiyp-3" value="Condition" style="rhombus;whiteSpace=wrap;html=1;fontSize=20;fontStyle=0;fillColor=#f8cecc;strokeColor=#b85450;" vertex="1" parent="1">
          <mxGeometry x="130" y="230" width="120" height="120" as="geometry" />
        </mxCell>
        <mxCell id="8KqGE17TKITH780qZiyp-5" value="End" style="rounded=1;whiteSpace=wrap;html=1;fontSize=20;fontStyle=0;fillColor=#ffe6cc;strokeColor=#d79b00;" vertex="1" parent="1">
          <mxGeometry x="280" y="350" width="80" height="40" as="geometry" />
        </mxCell>
        <mxCell id="8KqGE17TKITH780qZiyp-9" style="edgeStyle=orthogonalEdgeStyle;shape=connector;rounded=0;orthogonalLoop=1;jettySize=auto;html=1;exitX=0;exitY=0.5;exitDx=0;exitDy=0;entryX=0;entryY=0.5;entryDx=0;entryDy=0;strokeColor=default;strokeWidth=3;align=center;verticalAlign=middle;fontFamily=Helvetica;fontSize=11;fontColor=default;labelBackgroundColor=default;endArrow=classicThin;endFill=1;flowAnimation=1;" edge="1" parent="1" source="8KqGE17TKITH780qZiyp-7" target="8KqGE17TKITH780qZiyp-3">
          <mxGeometry relative="1" as="geometry">
            <Array as="points">
              <mxPoint x="100" y="440" />
              <mxPoint x="100" y="290" />
            </Array>
          </mxGeometry>
        </mxCell>
        <mxCell id="8KqGE17TKITH780qZiyp-7" value="Do task" style="rounded=1;whiteSpace=wrap;html=1;fontSize=20;fontStyle=0;fillColor=#ffe6cc;strokeColor=#d79b00;" vertex="1" parent="1">
          <mxGeometry x="150" y="420" width="80" height="40" as="geometry" />
        </mxCell>
        <mxCell id="8KqGE17TKITH780qZiyp-8" style="edgeStyle=orthogonalEdgeStyle;rounded=0;orthogonalLoop=1;jettySize=auto;html=1;exitX=0.5;exitY=1;exitDx=0;exitDy=0;entryX=0.5;entryY=0;entryDx=0;entryDy=0;strokeWidth=3;flowAnimation=1;endArrow=classicThin;endFill=1;shadow=1;" edge="1" parent="1">
          <mxGeometry relative="1" as="geometry">
            <mxPoint x="189.5" y="350" as="sourcePoint" />
            <mxPoint x="189.5" y="420" as="targetPoint" />
          </mxGeometry>
        </mxCell>
        <mxCell id="8KqGE17TKITH780qZiyp-10" value="True" style="edgeLabel;html=1;align=center;verticalAlign=middle;resizable=0;points=[];fontFamily=Helvetica;fontSize=14;fontColor=#148505;labelBackgroundColor=default;fontStyle=1" vertex="1" connectable="0" parent="8KqGE17TKITH780qZiyp-8">
          <mxGeometry x="-0.0286" y="2" relative="1" as="geometry">
            <mxPoint as="offset" />
          </mxGeometry>
        </mxCell>
        <mxCell id="8KqGE17TKITH780qZiyp-12" value="Start" style="rounded=1;whiteSpace=wrap;html=1;fontSize=20;fontStyle=0;fillColor=#ffe6cc;strokeColor=#d79b00;" vertex="1" parent="1">
          <mxGeometry x="500" y="120" width="80" height="40" as="geometry" />
        </mxCell>
        <mxCell id="8KqGE17TKITH780qZiyp-13" value="false" style="edgeStyle=orthogonalEdgeStyle;rounded=0;orthogonalLoop=1;jettySize=auto;html=1;exitX=0.5;exitY=1;exitDx=0;exitDy=0;entryX=0.5;entryY=0;entryDx=0;entryDy=0;strokeWidth=3;flowAnimation=1;shadow=1;fontSize=14;fontColor=#ff0000;fontStyle=1" edge="1" parent="1" source="8KqGE17TKITH780qZiyp-14" target="8KqGE17TKITH780qZiyp-15">
          <mxGeometry x="-0.3846" relative="1" as="geometry">
            <mxPoint as="offset" />
          </mxGeometry>
        </mxCell>
        <mxCell id="8KqGE17TKITH780qZiyp-15" value="End" style="rounded=1;whiteSpace=wrap;html=1;fontSize=20;fontStyle=0;fillColor=#ffe6cc;strokeColor=#d79b00;" vertex="1" parent="1">
          <mxGeometry x="500" y="520" width="80" height="40" as="geometry" />
        </mxCell>
        <mxCell id="8KqGE17TKITH780qZiyp-17" value="Do task" style="rounded=1;whiteSpace=wrap;html=1;fontSize=20;fontStyle=0;fillColor=#ffe6cc;strokeColor=#d79b00;" vertex="1" parent="1">
          <mxGeometry x="500" y="230" width="80" height="40" as="geometry" />
        </mxCell>
        <mxCell id="8KqGE17TKITH780qZiyp-25" style="edgeStyle=orthogonalEdgeStyle;shape=connector;rounded=0;orthogonalLoop=1;jettySize=auto;html=1;exitX=0;exitY=0.5;exitDx=0;exitDy=0;entryX=0;entryY=0.5;entryDx=0;entryDy=0;strokeColor=default;strokeWidth=3;align=center;verticalAlign=middle;fontFamily=Helvetica;fontSize=11;fontColor=default;labelBackgroundColor=default;endArrow=classicThin;endFill=1;flowAnimation=1;" edge="1" parent="1" source="8KqGE17TKITH780qZiyp-14" target="8KqGE17TKITH780qZiyp-17">
          <mxGeometry relative="1" as="geometry" />
        </mxCell>
        <mxCell id="8KqGE17TKITH780qZiyp-26" value="&lt;span style=&quot;color: rgb(20, 133, 5); font-size: 14px; font-weight: 700;&quot;&gt;True&lt;/span&gt;" style="edgeLabel;html=1;align=center;verticalAlign=middle;resizable=0;points=[];fontFamily=Helvetica;fontSize=11;fontColor=default;labelBackgroundColor=default;" vertex="1" connectable="0" parent="8KqGE17TKITH780qZiyp-25">
          <mxGeometry y="-2" relative="1" as="geometry">
            <mxPoint as="offset" />
          </mxGeometry>
        </mxCell>
        <mxCell id="8KqGE17TKITH780qZiyp-14" value="Condition" style="rhombus;whiteSpace=wrap;html=1;fontSize=20;fontStyle=0;fillColor=#f8cecc;strokeColor=#b85450;" vertex="1" parent="1">
          <mxGeometry x="480" y="340" width="120" height="120" as="geometry" />
        </mxCell>
        <mxCell id="8KqGE17TKITH780qZiyp-22" style="edgeStyle=orthogonalEdgeStyle;rounded=0;orthogonalLoop=1;jettySize=auto;html=1;exitX=0.5;exitY=1;exitDx=0;exitDy=0;entryX=0.5;entryY=0;entryDx=0;entryDy=0;strokeWidth=3;flowAnimation=1;endArrow=classicThin;endFill=1;shadow=1;" edge="1" parent="1">
          <mxGeometry relative="1" as="geometry">
            <mxPoint x="539.5" y="160" as="sourcePoint" />
            <mxPoint x="539.5" y="230" as="targetPoint" />
          </mxGeometry>
        </mxCell>
        <mxCell id="8KqGE17TKITH780qZiyp-23" style="edgeStyle=orthogonalEdgeStyle;rounded=0;orthogonalLoop=1;jettySize=auto;html=1;exitX=0.5;exitY=1;exitDx=0;exitDy=0;entryX=0.5;entryY=0;entryDx=0;entryDy=0;strokeWidth=3;flowAnimation=1;endArrow=classicThin;endFill=1;shadow=1;" edge="1" parent="1">
          <mxGeometry relative="1" as="geometry">
            <mxPoint x="539.5" y="270" as="sourcePoint" />
            <mxPoint x="539.5" y="340" as="targetPoint" />
          </mxGeometry>
        </mxCell>
        <mxCell id="8KqGE17TKITH780qZiyp-27" value="While" style="text;html=1;align=center;verticalAlign=middle;whiteSpace=wrap;rounded=0;fontFamily=Helvetica;fontSize=20;fontColor=default;labelBackgroundColor=default;fontStyle=1" vertex="1" parent="1">
          <mxGeometry x="120" y="90" width="60" height="30" as="geometry" />
        </mxCell>
        <mxCell id="8KqGE17TKITH780qZiyp-28" value="Do While" style="text;html=1;align=center;verticalAlign=middle;whiteSpace=wrap;rounded=0;fontFamily=Helvetica;fontSize=20;fontColor=default;labelBackgroundColor=default;fontStyle=1" vertex="1" parent="1">
          <mxGeometry x="460" y="90" width="100" height="30" as="geometry" />
        </mxCell>
      </root>
    </mxGraphModel>
  </diagram>
</mxfile>
